<svg xmlns="http://www.w3.org/2000/svg" width="1200" height="460" viewBox="0 0 1200 460" role="img" aria-labelledby="title desc">
  <title id="title">Morphism Engine Architecture Overview</title>
  <desc id="desc">Flow from user command to parser, mismatch detection, synthesis, verification, cache, and execution.</desc>
  <defs>
    <style>
      .t{font-family:Segoe UI,Arial,sans-serif;fill:#0f172a}
      .h{font-size:18px;font-weight:700}
      .s{font-size:13px}
      .box{rx:12;ry:12;stroke:#1f2937;stroke-width:2}
      .arrow{stroke:#334155;stroke-width:2.5;marker-end:url(#m)}
    </style>
    <marker id="m" markerWidth="10" markerHeight="10" refX="8" refY="5" orient="auto">
      <path d="M0,0 L10,5 L0,10 z" fill="#334155"/>
    </marker>
  </defs>

  <rect x="0" y="0" width="1200" height="460" fill="#f8fafc"/>
  <text class="t h" x="40" y="40">Morphism Engine: Verified Adaptive Pipeline Flow</text>

  <rect class="box" x="40" y="90" width="170" height="72" fill="#dbeafe"/>
  <text class="t s" x="58" y="122">User Command</text>
  <text class="t s" x="58" y="142">emit_raw | render_float</text>

  <rect class="box" x="250" y="90" width="170" height="72" fill="#e0f2fe"/>
  <text class="t s" x="296" y="122">Parser + DAG</text>
  <text class="t s" x="289" y="142">Boundary Check</text>

  <rect class="box" x="460" y="90" width="170" height="72" fill="#fee2e2"/>
  <text class="t s" x="486" y="122">Schema Mismatch?</text>
  <text class="t s" x="518" y="142">Yes</text>

  <rect class="box" x="670" y="40" width="190" height="72" fill="#fef3c7"/>
  <text class="t s" x="709" y="72">SQLite Cache Lookup</text>
  <text class="t s" x="719" y="92">(schema pair)</text>

  <rect class="box" x="670" y="130" width="190" height="72" fill="#fde68a"/>
  <text class="t s" x="699" y="162">LLM Synthesis (miss)</text>
  <text class="t s" x="699" y="182">Candidate Lambda</text>

  <rect class="box" x="900" y="90" width="230" height="72" fill="#dcfce7"/>
  <text class="t s" x="946" y="122">AST Sandbox + Z3 Verifier</text>
  <text class="t s" x="950" y="142">Proof Certificate Emitted</text>

  <rect class="box" x="670" y="260" width="190" height="72" fill="#bbf7d0"/>
  <text class="t s" x="712" y="292">Cache Store</text>
  <text class="t s" x="701" y="312">Verified Bridge</text>

  <rect class="box" x="900" y="260" width="230" height="72" fill="#bfdbfe"/>
  <text class="t s" x="952" y="292">Execute Pipeline</text>
  <text class="t s" x="940" y="312">Typed, Verified Output</text>

  <line class="arrow" x1="210" y1="126" x2="250" y2="126"/>
  <line class="arrow" x1="420" y1="126" x2="460" y2="126"/>
  <line class="arrow" x1="630" y1="112" x2="670" y2="76"/>
  <line class="arrow" x1="630" y1="140" x2="670" y2="166"/>
  <line class="arrow" x1="860" y1="76" x2="900" y2="108"/>
  <line class="arrow" x1="860" y1="166" x2="900" y2="144"/>
  <line class="arrow" x1="1015" y1="162" x2="1015" y2="260"/>
  <line class="arrow" x1="860" y1="296" x2="900" y2="296"/>

  <text class="t s" x="52" y="404">Result: fast cache-hit execution after first verified synthesis, with auditable proof artifacts.</text>
</svg>
